<?xml version="1.0" encoding="utf-8"?>
<!-- Generator: Adobe Illustrator 16.0.4, SVG Export Plug-In . SVG Version: 6.00 Build 0)  -->
<!DOCTYPE svg PUBLIC "-//W3C//DTD SVG 1.1//EN" "http://www.w3.org/Graphics/SVG/1.1/DTD/svg11.dtd">
<svg version="1.1" id="图层_1" xmlns="http://www.w3.org/2000/svg" xmlns:xlink="http://www.w3.org/1999/xlink" x="0px" y="0px"
	 width="50px" height="50px" viewBox="0 0 50 50" enable-background="new 0 0 50 50" xml:space="preserve">
<g>
	<defs>
		<path id="SVGID_1_" d="M26.208,19.534H15.439c-0.617,0-1.134,0.51-1.134,1.131s0.517,1.13,1.134,1.13h10.769
			c0.643,0,1.171-0.509,1.171-1.13S26.851,19.534,26.208,19.534z M26.208,31.758L26.208,31.758H15.439
			c-0.617,0-1.134,0.497-1.134,1.118s0.517,1.13,1.134,1.13h10.769c0.643,0,1.171-0.509,1.171-1.13S26.851,31.758,26.208,31.758z
			 M26.208,23.597L26.208,23.597H15.439c-0.617,0-1.134,0.509-1.134,1.143s0.517,1.118,1.134,1.118h10.769
			c0.643,0,1.171-0.484,1.171-1.118S26.851,23.597,26.208,23.597z M26.208,35.795L26.208,35.795H15.439
			c-0.617,0-1.134,0.534-1.134,1.155c0,0.646,0.517,1.143,1.134,1.143h10.769c0.643,0,1.171-0.496,1.171-1.143
			C27.379,36.329,26.851,35.795,26.208,35.795z M26.208,27.671L26.208,27.671H15.439c-0.617,0-1.134,0.521-1.134,1.118
			c0,0.646,0.517,1.155,1.134,1.155h10.769c0.643,0,1.171-0.51,1.171-1.155C27.379,28.192,26.851,27.671,26.208,27.671z
			 M42.09,31.758L42.09,31.758H31.296c-0.616,0-1.146,0.497-1.146,1.118s0.529,1.13,1.146,1.13H42.09
			c0.655,0,1.146-0.509,1.146-1.13S42.745,31.758,42.09,31.758z M26.208,15.447L26.208,15.447H15.439
			c-0.617,0-1.134,0.534-1.134,1.143c0,0.621,0.517,1.131,1.134,1.131h10.769c0.643,0,1.171-0.51,1.171-1.131
			C27.379,15.981,26.851,15.447,26.208,15.447z M49.408,5.534L49.408,5.534c-0.718-0.708-1.952-0.708-2.683,0l-1.839,1.789
			l-1.676-1.652C42.846,5.261,42.33,5,41.75,5h-0.139c-0.479,0-0.982,0.174-1.372,0.559l-1.776,1.776l-1.7-1.665
			C36.397,5.261,35.894,5,35.289,5H35.15c-0.491,0-0.982,0.174-1.335,0.559l-1.813,1.764l-1.713-1.652
			C29.937,5.261,29.407,5,28.828,5h-0.126c-0.504,0-1.008,0.174-1.36,0.559l-1.813,1.776l-1.701-1.665
			C23.475,5.261,22.946,5,22.379,5h-0.151c-0.466,0-0.982,0.174-1.373,0.559l-1.75,1.764l-1.738-1.652
			C17.026,5.261,16.51,5,15.943,5h-0.138c-0.517,0-0.982,0.174-1.373,0.559L12.63,7.335l-1.713-1.665C10.565,5.261,10.048,5,9.457,5
			C8.398,5,7.517,5.833,7.517,6.9v7.963l-6.159,1.838C0.351,17-0.229,18.068,0.086,19.062l7.532,24.472
			C7.807,44.379,8.6,45,9.457,45h38.617C49.131,45,50,44.118,50,43.087V6.9C50,6.391,49.786,5.932,49.408,5.534z M7.517,30.267
			L7.517,30.267L4.343,19.795l3.174-0.969V30.267z M46.134,41.199L46.134,41.199H11.358V11.447c0.769,0.658,1.915,0.596,2.607-0.1
			l0.012-0.025h0.038l1.839-1.801l1.864,1.801c0.756,0.783,1.953,0.783,2.721,0.025v-0.025h0.025l1.839-1.801l1.864,1.801
			c0.756,0.783,1.965,0.783,2.733,0.025v-0.025h0.038l1.826-1.801l1.89,1.801c0.718,0.783,1.927,0.783,2.683,0.025l0.013-0.025
			h0.025l1.863-1.801l1.852,1.801c0.769,0.783,1.965,0.783,2.721,0.025l1.864-1.826l1.864,1.801
			c0.718,0.721,1.863,0.783,2.595,0.125V41.199z M42.09,35.795L42.09,35.795H31.296c-0.616,0-1.146,0.534-1.146,1.155
			c0,0.646,0.529,1.143,1.146,1.143H42.09c0.655,0,1.146-0.496,1.146-1.143C43.236,36.329,42.745,35.795,42.09,35.795z
			 M42.09,15.447L42.09,15.447H31.296c-0.616,0-1.146,0.534-1.146,1.143v12.199c0,0.646,0.529,1.155,1.146,1.155H42.09
			c0.655,0,1.146-0.51,1.146-1.155V16.59C43.236,15.981,42.745,15.447,42.09,15.447z M40.944,27.671L40.944,27.671h-8.489v-9.95
			h8.489V27.671z"/>
	</defs>
	<use xlink:href="#SVGID_1_"  overflow="visible" fill-rule="evenodd" clip-rule="evenodd" fill="#FFFFFF"/>
	<clipPath id="SVGID_2_">
		<use xlink:href="#SVGID_1_"  overflow="visible"/>
	</clipPath>
</g>
</svg>
